<svg id="visual" viewBox="0 0 1920 1080" width="1920" height="1080" xmlns="http://www.w3.org/2000/svg" xmlns:xlink="http://www.w3.org/1999/xlink" version="1.1"><path d="M0 772L17.8 772.7C35.7 773.3 71.3 774.7 106.8 770.7C142.3 766.7 177.7 757.3 213.2 757.3C248.7 757.3 284.3 766.7 320 764.5C355.7 762.3 391.3 748.7 426.8 743.2C462.3 737.7 497.7 740.3 533.2 749.5C568.7 758.7 604.3 774.3 640 776.3C675.7 778.3 711.3 766.7 746.8 771.2C782.3 775.7 817.7 796.3 853.2 806.3C888.7 816.3 924.3 815.7 960 811.7C995.7 807.7 1031.3 800.3 1066.8 799.8C1102.3 799.3 1137.7 805.7 1173.2 797.7C1208.7 789.7 1244.3 767.3 1280 765.5C1315.7 763.7 1351.3 782.3 1386.8 790.7C1422.3 799 1457.7 797 1493.2 801.2C1528.7 805.3 1564.3 815.7 1600 814.2C1635.7 812.7 1671.3 799.3 1706.8 792.3C1742.3 785.3 1777.7 784.7 1813.2 776.7C1848.7 768.7 1884.3 753.3 1902.2 745.7L1920 738L1920 1081L1902.2 1081C1884.3 1081 1848.7 1081 1813.2 1081C1777.7 1081 1742.3 1081 1706.8 1081C1671.3 1081 1635.7 1081 1600 1081C1564.3 1081 1528.7 1081 1493.2 1081C1457.7 1081 1422.3 1081 1386.8 1081C1351.3 1081 1315.7 1081 1280 1081C1244.3 1081 1208.7 1081 1173.2 1081C1137.7 1081 1102.3 1081 1066.8 1081C1031.3 1081 995.7 1081 960 1081C924.3 1081 888.7 1081 853.2 1081C817.7 1081 782.3 1081 746.8 1081C711.3 1081 675.7 1081 640 1081C604.3 1081 568.7 1081 533.2 1081C497.7 1081 462.3 1081 426.8 1081C391.3 1081 355.7 1081 320 1081C284.3 1081 248.7 1081 213.2 1081C177.7 1081 142.3 1081 106.8 1081C71.3 1081 35.7 1081 17.8 1081L0 1081Z" fill="#757575"></path><path d="M0 798L17.8 800.2C35.7 802.3 71.3 806.7 106.8 814.7C142.3 822.7 177.7 834.3 213.2 838.2C248.7 842 284.3 838 320 828.2C355.7 818.3 391.3 802.7 426.8 798C462.3 793.3 497.7 799.7 533.2 808.5C568.7 817.3 604.3 828.7 640 832.5C675.7 836.3 711.3 832.7 746.8 822C782.3 811.3 817.7 793.7 853.2 790.5C888.7 787.3 924.3 798.7 960 808.5C995.7 818.3 1031.3 826.7 1066.8 823.5C1102.3 820.3 1137.7 805.7 1173.2 807.2C1208.7 808.7 1244.3 826.3 1280 830.3C1315.7 834.3 1351.3 824.7 1386.8 824.2C1422.3 823.7 1457.7 832.3 1493.2 832.2C1528.7 832 1564.3 823 1600 822.5C1635.7 822 1671.3 830 1706.8 830.2C1742.3 830.3 1777.7 822.7 1813.2 820.2C1848.7 817.7 1884.3 820.3 1902.2 821.7L1920 823L1920 1081L1902.2 1081C1884.3 1081 1848.7 1081 1813.2 1081C1777.7 1081 1742.3 1081 1706.8 1081C1671.3 1081 1635.7 1081 1600 1081C1564.3 1081 1528.7 1081 1493.2 1081C1457.7 1081 1422.3 1081 1386.8 1081C1351.3 1081 1315.7 1081 1280 1081C1244.3 1081 1208.7 1081 1173.2 1081C1137.7 1081 1102.3 1081 1066.8 1081C1031.3 1081 995.7 1081 960 1081C924.3 1081 888.7 1081 853.2 1081C817.7 1081 782.3 1081 746.8 1081C711.3 1081 675.7 1081 640 1081C604.3 1081 568.7 1081 533.2 1081C497.7 1081 462.3 1081 426.8 1081C391.3 1081 355.7 1081 320 1081C284.3 1081 248.7 1081 213.2 1081C177.7 1081 142.3 1081 106.8 1081C71.3 1081 35.7 1081 17.8 1081L0 1081Z" fill="#858585"></path><path d="M0 879L17.8 867.5C35.7 856 71.3 833 106.8 821.2C142.3 809.3 177.7 808.7 213.2 816C248.7 823.3 284.3 838.7 320 846C355.7 853.3 391.3 852.7 426.8 845.7C462.3 838.7 497.7 825.3 533.2 818.7C568.7 812 604.3 812 640 811.5C675.7 811 711.3 810 746.8 809.5C782.3 809 817.7 809 853.2 815C888.7 821 924.3 833 960 842.7C995.7 852.3 1031.3 859.7 1066.8 856.8C1102.3 854 1137.7 841 1173.2 841.7C1208.7 842.3 1244.3 856.7 1280 860.2C1315.7 863.7 1351.3 856.3 1386.8 855.7C1422.3 855 1457.7 861 1493.2 861.2C1528.7 861.3 1564.3 855.7 1600 844.3C1635.7 833 1671.3 816 1706.8 816.7C1742.3 817.3 1777.7 835.7 1813.2 845.7C1848.7 855.7 1884.3 857.3 1902.2 858.2L1920 859L1920 1081L1902.2 1081C1884.3 1081 1848.7 1081 1813.2 1081C1777.7 1081 1742.3 1081 1706.8 1081C1671.3 1081 1635.7 1081 1600 1081C1564.3 1081 1528.7 1081 1493.2 1081C1457.7 1081 1422.3 1081 1386.8 1081C1351.3 1081 1315.7 1081 1280 1081C1244.3 1081 1208.7 1081 1173.2 1081C1137.7 1081 1102.3 1081 1066.8 1081C1031.3 1081 995.7 1081 960 1081C924.3 1081 888.7 1081 853.2 1081C817.7 1081 782.3 1081 746.8 1081C711.3 1081 675.7 1081 640 1081C604.3 1081 568.7 1081 533.2 1081C497.7 1081 462.3 1081 426.8 1081C391.3 1081 355.7 1081 320 1081C284.3 1081 248.7 1081 213.2 1081C177.7 1081 142.3 1081 106.8 1081C71.3 1081 35.7 1081 17.8 1081L0 1081Z" fill="#959596"></path><path d="M0 880L17.8 881.3C35.7 882.7 71.3 885.3 106.8 885.7C142.3 886 177.7 884 213.2 876.2C248.7 868.3 284.3 854.7 320 855.8C355.7 857 391.3 873 426.8 884.3C462.3 895.7 497.7 902.3 533.2 893.7C568.7 885 604.3 861 640 849.3C675.7 837.7 711.3 838.3 746.8 845.3C782.3 852.3 817.7 865.7 853.2 874.7C888.7 883.7 924.3 888.3 960 886.5C995.7 884.7 1031.3 876.3 1066.8 875.2C1102.3 874 1137.7 880 1173.2 874.8C1208.7 869.7 1244.3 853.3 1280 847.2C1315.7 841 1351.3 845 1386.8 854.8C1422.3 864.7 1457.7 880.3 1493.2 887.7C1528.7 895 1564.3 894 1600 888.8C1635.7 883.7 1671.3 874.3 1706.8 870.3C1742.3 866.3 1777.7 867.7 1813.2 863C1848.7 858.3 1884.3 847.7 1902.2 842.3L1920 837L1920 1081L1902.2 1081C1884.3 1081 1848.7 1081 1813.2 1081C1777.7 1081 1742.3 1081 1706.8 1081C1671.3 1081 1635.7 1081 1600 1081C1564.3 1081 1528.7 1081 1493.2 1081C1457.7 1081 1422.3 1081 1386.8 1081C1351.3 1081 1315.7 1081 1280 1081C1244.3 1081 1208.7 1081 1173.2 1081C1137.7 1081 1102.3 1081 1066.8 1081C1031.3 1081 995.7 1081 960 1081C924.3 1081 888.7 1081 853.2 1081C817.7 1081 782.3 1081 746.8 1081C711.3 1081 675.7 1081 640 1081C604.3 1081 568.7 1081 533.2 1081C497.7 1081 462.3 1081 426.8 1081C391.3 1081 355.7 1081 320 1081C284.3 1081 248.7 1081 213.2 1081C177.7 1081 142.3 1081 106.8 1081C71.3 1081 35.7 1081 17.8 1081L0 1081Z" fill="#a5a5a7"></path><path d="M0 933L17.8 924.7C35.7 916.3 71.3 899.7 106.8 896.3C142.3 893 177.7 903 213.2 910.5C248.7 918 284.3 923 320 926.7C355.7 930.3 391.3 932.7 426.8 926.3C462.3 920 497.7 905 533.2 898.8C568.7 892.7 604.3 895.3 640 894.7C675.7 894 711.3 890 746.8 886.7C782.3 883.3 817.7 880.7 853.2 888.2C888.7 895.7 924.3 913.3 960 914.3C995.7 915.3 1031.3 899.7 1066.8 900.5C1102.3 901.3 1137.7 918.7 1173.2 924.7C1208.7 930.7 1244.3 925.3 1280 919.7C1315.7 914 1351.3 908 1386.8 911.2C1422.3 914.3 1457.7 926.7 1493.2 927.2C1528.7 927.7 1564.3 916.3 1600 913.3C1635.7 910.3 1671.3 915.7 1706.8 918.2C1742.3 920.7 1777.7 920.3 1813.2 914.7C1848.7 909 1884.3 898 1902.2 892.5L1920 887L1920 1081L1902.2 1081C1884.3 1081 1848.7 1081 1813.2 1081C1777.7 1081 1742.3 1081 1706.8 1081C1671.3 1081 1635.7 1081 1600 1081C1564.3 1081 1528.7 1081 1493.2 1081C1457.7 1081 1422.3 1081 1386.8 1081C1351.3 1081 1315.7 1081 1280 1081C1244.3 1081 1208.7 1081 1173.2 1081C1137.7 1081 1102.3 1081 1066.8 1081C1031.3 1081 995.7 1081 960 1081C924.3 1081 888.7 1081 853.2 1081C817.7 1081 782.3 1081 746.8 1081C711.3 1081 675.7 1081 640 1081C604.3 1081 568.7 1081 533.2 1081C497.7 1081 462.3 1081 426.8 1081C391.3 1081 355.7 1081 320 1081C284.3 1081 248.7 1081 213.2 1081C177.7 1081 142.3 1081 106.8 1081C71.3 1081 35.7 1081 17.8 1081L0 1081Z" fill="#b6b6b8"></path><path d="M0 923L17.8 926.2C35.7 929.3 71.3 935.7 106.8 936.8C142.3 938 177.7 934 213.2 936.2C248.7 938.3 284.3 946.7 320 947.2C355.7 947.7 391.3 940.3 426.8 941.8C462.3 943.3 497.7 953.7 533.2 951.5C568.7 949.3 604.3 934.7 640 933C675.7 931.3 711.3 942.7 746.8 947.8C782.3 953 817.7 952 853.2 952.3C888.7 952.7 924.3 954.3 960 951.2C995.7 948 1031.3 940 1066.8 933C1102.3 926 1137.7 920 1173.2 916.8C1208.7 913.7 1244.3 913.3 1280 912.5C1315.7 911.7 1351.3 910.3 1386.8 918.5C1422.3 926.7 1457.7 944.3 1493.2 951.2C1528.7 958 1564.3 954 1600 950.5C1635.7 947 1671.3 944 1706.8 946.8C1742.3 949.7 1777.7 958.3 1813.2 957.8C1848.7 957.3 1884.3 947.7 1902.2 942.8L1920 938L1920 1081L1902.2 1081C1884.3 1081 1848.7 1081 1813.2 1081C1777.7 1081 1742.3 1081 1706.8 1081C1671.3 1081 1635.7 1081 1600 1081C1564.3 1081 1528.7 1081 1493.2 1081C1457.7 1081 1422.3 1081 1386.8 1081C1351.3 1081 1315.7 1081 1280 1081C1244.3 1081 1208.7 1081 1173.2 1081C1137.7 1081 1102.3 1081 1066.8 1081C1031.3 1081 995.7 1081 960 1081C924.3 1081 888.7 1081 853.2 1081C817.7 1081 782.3 1081 746.8 1081C711.3 1081 675.7 1081 640 1081C604.3 1081 568.7 1081 533.2 1081C497.7 1081 462.3 1081 426.8 1081C391.3 1081 355.7 1081 320 1081C284.3 1081 248.7 1081 213.2 1081C177.7 1081 142.3 1081 106.8 1081C71.3 1081 35.7 1081 17.8 1081L0 1081Z" fill="#c7c7c9"></path><path d="M0 991L17.8 985.7C35.7 980.3 71.3 969.7 106.8 962.5C142.3 955.3 177.7 951.7 213.2 950.7C248.7 949.7 284.3 951.3 320 951C355.7 950.7 391.3 948.3 426.8 953C462.3 957.7 497.7 969.3 533.2 976.8C568.7 984.3 604.3 987.7 640 984.3C675.7 981 711.3 971 746.8 964.8C782.3 958.7 817.7 956.3 853.2 955.5C888.7 954.7 924.3 955.3 960 957.8C995.7 960.3 1031.3 964.7 1066.8 963.7C1102.3 962.7 1137.7 956.3 1173.2 953.7C1208.7 951 1244.3 952 1280 956C1315.7 960 1351.3 967 1386.8 974C1422.3 981 1457.7 988 1493.2 984.2C1528.7 980.3 1564.3 965.7 1600 958.2C1635.7 950.7 1671.3 950.3 1706.8 953.2C1742.3 956 1777.7 962 1813.2 964.3C1848.7 966.7 1884.3 965.3 1902.2 964.7L1920 964L1920 1081L1902.2 1081C1884.3 1081 1848.7 1081 1813.2 1081C1777.7 1081 1742.3 1081 1706.8 1081C1671.3 1081 1635.7 1081 1600 1081C1564.3 1081 1528.7 1081 1493.2 1081C1457.7 1081 1422.3 1081 1386.8 1081C1351.3 1081 1315.7 1081 1280 1081C1244.3 1081 1208.7 1081 1173.2 1081C1137.7 1081 1102.3 1081 1066.8 1081C1031.3 1081 995.7 1081 960 1081C924.3 1081 888.7 1081 853.2 1081C817.7 1081 782.3 1081 746.8 1081C711.3 1081 675.7 1081 640 1081C604.3 1081 568.7 1081 533.2 1081C497.7 1081 462.3 1081 426.8 1081C391.3 1081 355.7 1081 320 1081C284.3 1081 248.7 1081 213.2 1081C177.7 1081 142.3 1081 106.8 1081C71.3 1081 35.7 1081 17.8 1081L0 1081Z" fill="#d8d8db"></path><path d="M0 1010L17.8 1007.3C35.7 1004.7 71.3 999.3 106.8 1001.8C142.3 1004.3 177.7 1014.7 213.2 1016C248.7 1017.3 284.3 1009.7 320 1005.8C355.7 1002 391.3 1002 426.8 1001.2C462.3 1000.3 497.7 998.7 533.2 1001.3C568.7 1004 604.3 1011 640 1012.7C675.7 1014.3 711.3 1010.7 746.8 1011.7C782.3 1012.7 817.7 1018.3 853.2 1016.2C888.7 1014 924.3 1004 960 997.8C995.7 991.7 1031.3 989.3 1066.8 992.5C1102.3 995.7 1137.7 1004.3 1173.2 1007C1208.7 1009.7 1244.3 1006.3 1280 1006C1315.7 1005.7 1351.3 1008.3 1386.8 1009C1422.3 1009.7 1457.7 1008.3 1493.2 1004.5C1528.7 1000.7 1564.3 994.3 1600 994.7C1635.7 995 1671.3 1002 1706.8 1007C1742.3 1012 1777.7 1015 1813.2 1015.5C1848.7 1016 1884.3 1014 1902.2 1013L1920 1012L1920 1081L1902.2 1081C1884.3 1081 1848.7 1081 1813.2 1081C1777.7 1081 1742.3 1081 1706.8 1081C1671.3 1081 1635.7 1081 1600 1081C1564.3 1081 1528.7 1081 1493.2 1081C1457.7 1081 1422.3 1081 1386.8 1081C1351.3 1081 1315.7 1081 1280 1081C1244.3 1081 1208.7 1081 1173.2 1081C1137.7 1081 1102.3 1081 1066.8 1081C1031.3 1081 995.7 1081 960 1081C924.3 1081 888.7 1081 853.2 1081C817.7 1081 782.3 1081 746.8 1081C711.3 1081 675.7 1081 640 1081C604.3 1081 568.7 1081 533.2 1081C497.7 1081 462.3 1081 426.8 1081C391.3 1081 355.7 1081 320 1081C284.3 1081 248.7 1081 213.2 1081C177.7 1081 142.3 1081 106.8 1081C71.3 1081 35.7 1081 17.8 1081L0 1081Z" fill="#e9e9ed"></path><path d="M0 1042L17.8 1041.2C35.7 1040.3 71.3 1038.7 106.8 1035.7C142.3 1032.7 177.7 1028.3 213.2 1030.3C248.7 1032.3 284.3 1040.7 320 1040.2C355.7 1039.7 391.3 1030.3 426.8 1026.7C462.3 1023 497.7 1025 533.2 1027.5C568.7 1030 604.3 1033 640 1032.2C675.7 1031.3 711.3 1026.7 746.8 1029.3C782.3 1032 817.7 1042 853.2 1045.2C888.7 1048.3 924.3 1044.7 960 1039.2C995.7 1033.7 1031.3 1026.3 1066.8 1027.2C1102.3 1028 1137.7 1037 1173.2 1040C1208.7 1043 1244.3 1040 1280 1037.5C1315.7 1035 1351.3 1033 1386.8 1035.5C1422.3 1038 1457.7 1045 1493.2 1047.8C1528.7 1050.7 1564.3 1049.3 1600 1048.7C1635.7 1048 1671.3 1048 1706.8 1046.2C1742.3 1044.3 1777.7 1040.7 1813.2 1038.5C1848.7 1036.3 1884.3 1035.7 1902.2 1035.3L1920 1035L1920 1081L1902.2 1081C1884.3 1081 1848.7 1081 1813.2 1081C1777.7 1081 1742.3 1081 1706.8 1081C1671.3 1081 1635.7 1081 1600 1081C1564.3 1081 1528.7 1081 1493.2 1081C1457.7 1081 1422.3 1081 1386.8 1081C1351.3 1081 1315.7 1081 1280 1081C1244.3 1081 1208.7 1081 1173.2 1081C1137.7 1081 1102.3 1081 1066.8 1081C1031.3 1081 995.7 1081 960 1081C924.3 1081 888.7 1081 853.2 1081C817.7 1081 782.3 1081 746.8 1081C711.3 1081 675.7 1081 640 1081C604.3 1081 568.7 1081 533.2 1081C497.7 1081 462.3 1081 426.8 1081C391.3 1081 355.7 1081 320 1081C284.3 1081 248.7 1081 213.2 1081C177.7 1081 142.3 1081 106.8 1081C71.3 1081 35.7 1081 17.8 1081L0 1081Z" fill="#fbfbff"></path></svg>